<svg height="512" viewBox="0 0 512 512" width="512" xmlns="http://www.w3.org/2000/svg"><g id="filled_outline" data-name="filled outline"><path d="m341.473 376a18.38 18.38 0 0 0 -16.9 11.142l-19.221 44.858 33.616 8 6.384-8 18.878-25.382-5.86-4.994a18.383 18.383 0 0 0 -16.897-25.624z" fill="#f0bd9b"/><path d="m381.473 376a18.38 18.38 0 0 0 -16.9 11.142l-19.221 44.858 10.039 8 23.709 1.669 6.252-9.669 19.361-26.509-6.343-3.867a18.383 18.383 0 0 0 -16.897-25.624z" fill="#f5c19e"/><path d="m288 296v-24l16-16-16-16 16-16-16-16v-24h-64v112l32 32z" fill="#d9d9d9"/><rect fill="#878787" height="160" rx="40" width="144" x="184" y="24"/><path d="m296 88h-80v-16a16 16 0 0 1 16-16h48a16 16 0 0 1 16 16z" fill="#8bc89c"/><path d="m280 152h-48a16 16 0 0 1 -16-16v-16h80v16a16 16 0 0 1 -16 16z" fill="#fdb62f"/><path d="m264 208h-16v112l8 8 8-8z" fill="#b9b9b9"/><path d="m89.352 368h64v120h-64z" fill="#e4e4e2"/><path d="m421.291 376c-7.5.119-14.043 5.195-17 12.085l-18.815 43.915h-72.124l-16-16-1.352-8h-142.648v64l112 16 120.432-14.168a32 32 0 0 0 23.663-15.255l10.041-16.648a168.083 168.083 0 0 0 10.555-20.586l8.451-19.719a18.384 18.384 0 0 0 -17.203-25.624z" fill="#fec9a3"/><path d="m24 360h65.352v128h-65.352z" fill="#3474a6"/><g fill="#fdb62f"><path d="m368 272h16v16h-16z"/><path d="m344 296h16v16h-16z"/><path d="m392 296h16v16h-16z"/><path d="m368 320h16v16h-16z"/><path d="m104 56h16v16h-16z"/><path d="m80 80h16v16h-16z"/><path d="m128 80h16v16h-16z"/><path d="m104 104h16v16h-16z"/></g><path d="m384 88h16v16h-16z" fill="#fcd795"/><path d="m368 104h16v16h-16z" fill="#fcd795"/><path d="m400 104h16v16h-16z" fill="#fcd795"/><path d="m384 120h16v16h-16z" fill="#fcd795"/><path d="m136 232h16v16h-16z" fill="#fcd795"/><path d="m120 248h16v16h-16z" fill="#fcd795"/><path d="m152 248h16v16h-16z" fill="#fcd795"/><path d="m136 264h16v16h-16z" fill="#fcd795"/><path d="m153.352 376a53.9 53.9 0 0 1 44.848-24h14.311a53.893 53.893 0 0 1 44.844 24h48a16 16 0 0 1 16 16v16a8 8 0 0 1 -8 8h-160z" fill="#fec9a3"/><path d="m324.614 432-27.262-16h-73.352v16h89.351z" fill="#f7bb8f"/><path d="m224 184h64v16h-64z" fill="#b9b9b9"/><path d="m336 144v-80a48.054 48.054 0 0 0 -48-48h-64a48.054 48.054 0 0 0 -48 48v80a48.069 48.069 0 0 0 40 47.321v104.679a8 8 0 0 0 2.343 5.657l32 32a8 8 0 0 0 11.314 0l32-32a8 8 0 0 0 2.343-5.657v-20.687l13.657-13.656a8 8 0 0 0 0-11.314l-10.344-10.343 10.344-10.343a8 8 0 0 0 0-11.314l-13.657-13.656v-13.366a48.069 48.069 0 0 0 40-47.321zm-53.657 101.657 10.344 10.343-10.344 10.343a8 8 0 0 0 -2.343 5.657v20.687l-16 16v-100.687h-16v100.687l-16-16v-100.687h48v16a8 8 0 0 0 2.343 5.657l10.344 10.343-10.344 10.343a8 8 0 0 0 0 11.314zm5.657-69.657h-64a32.036 32.036 0 0 1 -32-32v-80a32.036 32.036 0 0 1 32-32h64a32.036 32.036 0 0 1 32 32v80a32.036 32.036 0 0 1 -32 32z"/><path d="m280 48h-48a24.027 24.027 0 0 0 -24 24v16a8 8 0 0 0 8 8h80a8 8 0 0 0 8-8v-16a24.027 24.027 0 0 0 -24-24zm8 32h-64v-8a8.009 8.009 0 0 1 8-8h48a8.009 8.009 0 0 1 8 8z"/><path d="m296 112h-80a8 8 0 0 0 -8 8v16a24.027 24.027 0 0 0 24 24h48a24.027 24.027 0 0 0 24-24v-16a8 8 0 0 0 -8-8zm-8 24a8.009 8.009 0 0 1 -8 8h-48a8.009 8.009 0 0 1 -8-8v-8h64z"/><path d="m413.6 368a26.342 26.342 0 0 0 -20.062 9.251 26.38 26.38 0 0 0 -40.092-.038 26.292 26.292 0 0 0 -34.423-4.9 24.087 24.087 0 0 0 -13.663-4.313h-43.909a61.855 61.855 0 0 0 -48.971-24h-14.32a61.706 61.706 0 0 0 -42.03 16.506 7.974 7.974 0 0 0 -2.778-.506h-56a8 8 0 0 0 -8-8h-65.352a8 8 0 0 0 -8 8v128a8 8 0 0 0 8 8h129.352a8 8 0 0 0 8-8v-6.777l102.877 14.7a7.934 7.934 0 0 0 1.131.08 8.059 8.059 0 0 0 .993-.062l112.547-14.081a39.592 39.592 0 0 0 29.318-19.015l16.08-26.72a8.092 8.092 0 0 0 .5-.972l13.036-30.39a26.367 26.367 0 0 0 -24.234-36.763zm-332.248 112h-49.352v-112h49.352zm64 0h-48v-104h48zm212.348-75.116c.109-.238.218-.506.322-.8l5.912-13.8a10.37 10.37 0 0 1 9.539-6.284 10.383 10.383 0 0 1 9.544 14.473l-10.941 25.527h-22.576zm-28.34 11.116v-24a23.831 23.831 0 0 0 -.953-6.665 10.29 10.29 0 0 1 13.619 3.23 10.109 10.109 0 0 1 1.1 9.53c-.079.2-.141.4-.2.607l-10.849 25.298h-10.717a8 8 0 0 0 8-8zm93.768-17.554-12.824 29.9-15.804 26.254a23.706 23.706 0 0 1 -17.573 11.377l-111.5 13.948-104.067-14.863v-86.529a45.806 45.806 0 0 1 36.8-18.533h14.32a45.908 45.908 0 0 1 38.229 20.446 8 8 0 0 0 6.651 3.554h48a8.01 8.01 0 0 1 6.718 3.7 7.923 7.923 0 0 1 1.282 4.3v16h-89.36v16h68.092l-2.085 4.849a8 8 0 0 0 7.353 11.151h80.08a8 8 0 0 0 7.351-4.842l19.282-44.887a10.35 10.35 0 0 1 9.527-6.271 10.366 10.366 0 0 1 9.528 14.446z"/><path d="m368 272h16v16h-16z"/><path d="m344 296h16v16h-16z"/><path d="m392 296h16v16h-16z"/><path d="m368 320h16v16h-16z"/><path d="m104 56h16v16h-16z"/><path d="m80 80h16v16h-16z"/><path d="m128 80h16v16h-16z"/><path d="m104 104h16v16h-16z"/><path d="m384 88h16v16h-16z"/><path d="m368 104h16v16h-16z"/><path d="m400 104h16v16h-16z"/><path d="m384 120h16v16h-16z"/><path d="m136 232h16v16h-16z"/><path d="m120 248h16v16h-16z"/><path d="m152 248h16v16h-16z"/><path d="m136 264h16v16h-16z"/></g></svg>